<svg width="180" height="180" viewBox="0 0 180 180" fill="none" xmlns="http://www.w3.org/2000/svg">
<path d="M140.152 88.6362C141.292 89.1562 142.158 89.8619 142.752 90.7534C143.347 91.6448 143.644 92.6848 143.644 93.8734V94.282C143.644 96.3868 142.827 98.0582 141.192 99.2963C139.558 100.51 137.342 101.116 134.544 101.116H119.315V76.7504H133.838C136.711 76.7504 138.927 77.3199 140.487 78.459C142.072 79.5733 142.864 81.1457 142.864 83.1762V83.5847C142.864 85.7638 141.96 87.4476 140.152 88.6362ZM124.887 81.6162V86.5191H133.801C136.104 86.5191 137.255 85.7638 137.255 84.2533V83.8819C137.255 83.139 136.958 82.5819 136.364 82.2105C135.794 81.8143 134.952 81.6162 133.838 81.6162H124.887ZM137.961 93.4648C137.961 91.9296 136.797 91.162 134.47 91.162H124.887V96.2506H134.47C135.584 96.2506 136.438 96.0401 137.032 95.6191C137.651 95.1982 137.961 94.6039 137.961 93.8363V93.4648Z" fill="white"/>
<path d="M154.05 76.7504V96.102H170.579V101.116H148.478V76.7504H154.05Z" fill="white"/>
<path d="M21.7494 101.562C17.738 101.562 14.6922 100.844 12.6122 99.4077C10.5322 97.9715 9.49219 95.8668 9.49219 93.0934V92.722H14.9894V93.0934C14.9894 94.282 15.5837 95.1858 16.7722 95.8048C17.9608 96.4239 19.6942 96.7334 21.9723 96.7334C24.0028 96.7334 25.538 96.5229 26.578 96.102C27.6428 95.6563 28.1752 95.0125 28.1752 94.1706V93.9105C28.1752 93.242 27.8781 92.7343 27.2838 92.3877C26.6895 92.0162 25.6371 91.7191 24.1266 91.4962L17.9237 90.6048C12.5751 89.8124 9.90076 87.6086 9.90076 83.9933V83.6219C9.90076 81.319 10.9036 79.5238 12.9094 78.2361C14.9399 76.9485 17.7751 76.3047 21.4151 76.3047C25.278 76.3047 28.2247 76.998 30.2552 78.3847C32.2857 79.7714 33.301 81.7771 33.301 84.4019V84.7362H27.8038V84.4019C27.8038 82.2228 25.6742 81.1333 21.4151 81.1333C19.5085 81.1333 18.0475 81.3314 17.0323 81.7276C16.0418 82.1238 15.5465 82.7057 15.5465 83.4733V83.7705C15.5465 84.34 15.8189 84.7857 16.3637 85.1076C16.9332 85.4295 17.8989 85.6895 19.2608 85.8876L25.5009 86.7791C28.3485 87.2 30.4409 87.9676 31.7781 89.0819C33.14 90.1715 33.821 91.6943 33.821 93.6505V94.022C33.821 96.3991 32.7686 98.2563 30.6638 99.5935C28.559 100.906 25.5876 101.562 21.7494 101.562Z" fill="white"/>
<path d="M35.4251 81.7647V76.7504H60.051V81.7647H50.5424V101.116H44.9337V81.7647H35.4251Z" fill="white"/>
<path d="M88.2206 85.0333C88.2206 87.0143 87.5892 88.6362 86.3263 89.8991C85.0882 91.162 83.3177 91.9543 81.0148 92.2762L87.9113 100.262L88.1092 101.116H81.7206L74.1434 92.3877H69.0547V101.116H63.4833V76.7504H78.9348C81.832 76.7504 84.0977 77.4561 85.732 78.8676C87.3911 80.2542 88.2206 82.1733 88.2206 84.6248V85.0333ZM82.5377 84.5133C82.5377 83.5971 82.2158 82.9038 81.572 82.4333C80.9529 81.9381 80.0244 81.6904 78.7863 81.6904H69.0547V87.7819H78.7863C79.9996 87.7819 80.9282 87.5467 81.572 87.0762C82.2158 86.581 82.5377 85.8629 82.5377 84.9219V84.5133Z" fill="white"/>
<path d="M122.471 96.2209C122.18 95.5168 112.019 77.9532 111.641 77.3945C107.767 71.6837 99.397 71.72 95.5489 77.3945C95.17 77.9525 85.0093 95.5147 84.7185 96.2209C81.7534 103.411 90.7743 111.357 97.8615 103.841C100.967 100.548 106.214 100.539 109.328 103.841C116.414 111.357 125.435 103.411 122.471 96.2209ZM112.44 101.814C107.826 96.3156 99.3577 96.3213 94.7494 101.814C91.7211 105.421 86.2519 101.471 88.4841 97.5888L98.6421 79.933C100.863 76.0721 106.332 76.0826 108.547 79.933L118.705 97.5905C120.938 101.471 115.467 105.421 112.44 101.814Z" fill="#B103EE"/>
</svg>
